<svg xmlns="http://www.w3.org/2000/svg" xmlns:xlink="http://www.w3.org/1999/xlink" width="500" zoomAndPan="magnify" viewBox="0 0 375 374.999991" height="500" preserveAspectRatio="xMidYMid meet" version="1.0"><defs><g/><clipPath id="b6a57364f8"><path d="M 329 195 L 337.539062 195 L 337.539062 230 L 329 230 Z M 329 195 " clip-rule="nonzero"/></clipPath><clipPath id="d4e0a17b02"><path d="M 210 27.738281 L 214 27.738281 L 214 29 L 210 29 Z M 210 27.738281 " clip-rule="nonzero"/></clipPath><clipPath id="f079cfdabc"><path d="M 119.300781 46.574219 L 356.300781 46.574219 L 356.300781 283.574219 L 119.300781 283.574219 Z M 119.300781 46.574219 " clip-rule="nonzero"/></clipPath><clipPath id="c9336f3a14"><path d="M 356.300781 165.074219 C 356.300781 167.015625 356.253906 168.953125 356.160156 170.890625 C 356.066406 172.828125 355.921875 174.761719 355.730469 176.691406 C 355.542969 178.621094 355.304688 180.542969 355.019531 182.460938 C 354.734375 184.378906 354.402344 186.289062 354.027344 188.191406 C 353.648438 190.09375 353.222656 191.988281 352.75 193.867188 C 352.28125 195.75 351.761719 197.617188 351.199219 199.472656 C 350.636719 201.328125 350.027344 203.171875 349.375 204.996094 C 348.722656 206.820312 348.023438 208.632812 347.28125 210.421875 C 346.539062 212.214844 345.753906 213.988281 344.925781 215.738281 C 344.097656 217.492188 343.222656 219.226562 342.308594 220.933594 C 341.394531 222.644531 340.441406 224.332031 339.445312 225.996094 C 338.445312 227.660156 337.410156 229.296875 336.332031 230.910156 C 335.253906 232.523438 334.136719 234.105469 332.984375 235.664062 C 331.828125 237.222656 330.632812 238.75 329.40625 240.25 C 328.175781 241.75 326.90625 243.21875 325.605469 244.65625 C 324.304688 246.089844 322.964844 247.496094 321.59375 248.867188 C 320.222656 250.238281 318.820312 251.574219 317.382812 252.878906 C 315.945312 254.179688 314.476562 255.445312 312.976562 256.675781 C 311.480469 257.90625 309.949219 259.097656 308.394531 260.253906 C 306.835938 261.410156 305.25 262.527344 303.636719 263.605469 C 302.023438 264.679688 300.386719 265.71875 298.722656 266.714844 C 297.058594 267.710938 295.375 268.667969 293.664062 269.582031 C 291.953125 270.496094 290.222656 271.367188 288.46875 272.199219 C 286.714844 273.027344 284.941406 273.8125 283.152344 274.554688 C 281.359375 275.296875 279.550781 275.996094 277.722656 276.648438 C 275.898438 277.300781 274.058594 277.910156 272.203125 278.472656 C 270.34375 279.035156 268.476562 279.550781 266.597656 280.023438 C 264.714844 280.496094 262.824219 280.917969 260.921875 281.296875 C 259.019531 281.675781 257.109375 282.007812 255.191406 282.292969 C 253.273438 282.578125 251.347656 282.8125 249.417969 283.003906 C 247.488281 283.195312 245.554688 283.335938 243.617188 283.433594 C 241.679688 283.527344 239.742188 283.574219 237.800781 283.574219 C 235.863281 283.574219 233.925781 283.527344 231.988281 283.433594 C 230.050781 283.335938 228.117188 283.195312 226.1875 283.003906 C 224.257812 282.8125 222.332031 282.578125 220.414062 282.292969 C 218.496094 282.007812 216.585938 281.675781 214.683594 281.296875 C 212.78125 280.917969 210.890625 280.496094 209.007812 280.023438 C 207.128906 279.550781 205.261719 279.035156 203.402344 278.472656 C 201.546875 277.910156 199.707031 277.300781 197.882812 276.648438 C 196.054688 275.996094 194.246094 275.296875 192.453125 274.554688 C 190.664062 273.8125 188.890625 273.027344 187.136719 272.199219 C 185.382812 271.367188 183.652344 270.496094 181.941406 269.582031 C 180.230469 268.667969 178.546875 267.710938 176.882812 266.714844 C 175.21875 265.71875 173.582031 264.679688 171.96875 263.605469 C 170.355469 262.527344 168.769531 261.410156 167.210938 260.253906 C 165.65625 259.097656 164.125 257.90625 162.628906 256.675781 C 161.128906 255.445312 159.660156 254.179688 158.222656 252.878906 C 156.785156 251.574219 155.382812 250.238281 154.011719 248.867188 C 152.640625 247.496094 151.300781 246.089844 150 244.65625 C 148.699219 243.21875 147.429688 241.75 146.199219 240.25 C 144.96875 238.75 143.777344 237.222656 142.621094 235.664062 C 141.46875 234.105469 140.351562 232.523438 139.273438 230.910156 C 138.195312 229.296875 137.160156 227.660156 136.160156 225.996094 C 135.164062 224.332031 134.210938 222.644531 133.296875 220.933594 C 132.378906 219.226562 131.507812 217.492188 130.679688 215.738281 C 129.851562 213.988281 129.066406 212.214844 128.324219 210.421875 C 127.582031 208.632812 126.882812 206.820312 126.230469 204.996094 C 125.578125 203.171875 124.96875 201.328125 124.40625 199.472656 C 123.84375 197.617188 123.324219 195.75 122.855469 193.867188 C 122.382812 191.988281 121.957031 190.09375 121.578125 188.191406 C 121.203125 186.289062 120.871094 184.378906 120.585938 182.460938 C 120.300781 180.542969 120.0625 178.621094 119.875 176.691406 C 119.683594 174.761719 119.539062 172.828125 119.445312 170.890625 C 119.351562 168.953125 119.300781 167.015625 119.300781 165.074219 C 119.300781 163.136719 119.351562 161.195312 119.445312 159.261719 C 119.539062 157.324219 119.683594 155.390625 119.875 153.460938 C 120.0625 151.53125 120.300781 149.605469 120.585938 147.6875 C 120.871094 145.769531 121.203125 143.859375 121.578125 141.957031 C 121.957031 140.054688 122.382812 138.164062 122.855469 136.28125 C 123.324219 134.398438 123.84375 132.53125 124.40625 130.675781 C 124.96875 128.820312 125.578125 126.980469 126.230469 125.152344 C 126.882812 123.328125 127.582031 121.519531 128.324219 119.726562 C 129.066406 117.933594 129.851562 116.164062 130.679688 114.410156 C 131.507812 112.65625 132.378906 110.925781 133.296875 109.214844 C 134.210938 107.503906 135.164062 105.816406 136.160156 104.152344 C 137.160156 102.488281 138.195312 100.851562 139.273438 99.238281 C 140.351562 97.628906 141.46875 96.042969 142.621094 94.484375 C 143.777344 92.925781 144.96875 91.398438 146.199219 89.898438 C 147.429688 88.398438 148.699219 86.933594 150 85.496094 C 151.300781 84.058594 152.640625 82.652344 154.011719 81.28125 C 155.382812 79.910156 156.785156 78.574219 158.222656 77.273438 C 159.660156 75.96875 161.128906 74.703125 162.628906 73.472656 C 164.125 72.242188 165.65625 71.050781 167.210938 69.894531 C 168.769531 68.738281 170.355469 67.621094 171.96875 66.546875 C 173.582031 65.46875 175.21875 64.429688 176.882812 63.433594 C 178.546875 62.4375 180.230469 61.480469 181.941406 60.566406 C 183.652344 59.652344 185.382812 58.78125 187.136719 57.953125 C 188.890625 57.121094 190.664062 56.335938 192.453125 55.59375 C 194.246094 54.851562 196.054688 54.15625 197.882812 53.5 C 199.707031 52.847656 201.546875 52.242188 203.402344 51.675781 C 205.261719 51.113281 207.128906 50.597656 209.007812 50.125 C 210.890625 49.65625 212.78125 49.230469 214.683594 48.851562 C 216.585938 48.472656 218.496094 48.140625 220.414062 47.855469 C 222.332031 47.574219 224.257812 47.335938 226.1875 47.144531 C 228.117188 46.957031 230.050781 46.8125 231.988281 46.71875 C 233.925781 46.621094 235.863281 46.574219 237.800781 46.574219 C 239.742188 46.574219 241.679688 46.621094 243.617188 46.71875 C 245.554688 46.8125 247.488281 46.957031 249.417969 47.144531 C 251.347656 47.335938 253.273438 47.574219 255.191406 47.855469 C 257.109375 48.140625 259.019531 48.472656 260.921875 48.851562 C 262.824219 49.230469 264.714844 49.65625 266.597656 50.125 C 268.476562 50.597656 270.34375 51.113281 272.203125 51.675781 C 274.058594 52.242188 275.898438 52.847656 277.722656 53.5 C 279.550781 54.15625 281.359375 54.851562 283.152344 55.59375 C 284.941406 56.335938 286.714844 57.121094 288.46875 57.953125 C 290.222656 58.78125 291.953125 59.652344 293.664062 60.566406 C 295.375 61.480469 297.058594 62.4375 298.722656 63.433594 C 300.386719 64.429688 302.023438 65.46875 303.636719 66.546875 C 305.25 67.621094 306.835938 68.738281 308.394531 69.894531 C 309.949219 71.050781 311.480469 72.242188 312.976562 73.472656 C 314.476562 74.703125 315.945312 75.96875 317.382812 77.273438 C 318.820312 78.574219 320.222656 79.910156 321.59375 81.28125 C 322.964844 82.652344 324.304688 84.058594 325.605469 85.496094 C 326.90625 86.933594 328.175781 88.398438 329.40625 89.898438 C 330.632812 91.398438 331.828125 92.925781 332.984375 94.484375 C 334.136719 96.042969 335.253906 97.628906 336.332031 99.238281 C 337.410156 100.851562 338.445312 102.488281 339.445312 104.152344 C 340.441406 105.816406 341.394531 107.503906 342.308594 109.214844 C 343.222656 110.925781 344.097656 112.65625 344.925781 114.410156 C 345.753906 116.164062 346.539062 117.933594 347.28125 119.726562 C 348.023438 121.519531 348.722656 123.328125 349.375 125.152344 C 350.027344 126.980469 350.636719 128.820312 351.199219 130.675781 C 351.761719 132.53125 352.28125 134.398438 352.75 136.28125 C 353.222656 138.164062 353.648438 140.054688 354.027344 141.957031 C 354.402344 143.859375 354.734375 145.769531 355.019531 147.6875 C 355.304688 149.605469 355.542969 151.53125 355.730469 153.460938 C 355.921875 155.390625 356.066406 157.324219 356.160156 159.261719 C 356.253906 161.195312 356.300781 163.136719 356.300781 165.074219 Z M 356.300781 165.074219 " clip-rule="nonzero"/></clipPath><linearGradient x1="245.382098" gradientTransform="matrix(0.820992, 0.474, 0.474, -0.820992, -77.013544, 256.052807)" y1="425.284518" x2="233.89923" gradientUnits="userSpaceOnUse" y2="73.020321" id="57eb455bd4"><stop stop-opacity="1" stop-color="rgb(18.798828%, 18.798828%, 18.798828%)" offset="0"/><stop stop-opacity="1" stop-color="rgb(18.798828%, 18.798828%, 18.798828%)" offset="0.0315683"/><stop stop-opacity="1" stop-color="rgb(18.798828%, 18.798828%, 18.798828%)" offset="0.125"/><stop stop-opacity="1" stop-color="rgb(18.629456%, 18.716431%, 18.806458%)" offset="0.15625"/><stop stop-opacity="1" stop-color="rgb(18.339539%, 18.574524%, 18.818665%)" offset="0.164062"/><stop stop-opacity="1" stop-color="rgb(18.09845%, 18.455505%, 18.829346%)" offset="0.171875"/><stop stop-opacity="1" stop-color="rgb(17.855835%, 18.338013%, 18.840027%)" offset="0.179687"/><stop stop-opacity="1" stop-color="rgb(17.61322%, 18.218994%, 18.850708%)" offset="0.1875"/><stop stop-opacity="1" stop-color="rgb(17.372131%, 18.101501%, 18.859863%)" offset="0.195312"/><stop stop-opacity="1" stop-color="rgb(17.129517%, 17.982483%, 18.870544%)" offset="0.203125"/><stop stop-opacity="1" stop-color="rgb(16.888428%, 17.863464%, 18.881226%)" offset="0.210937"/><stop stop-opacity="1" stop-color="rgb(16.645813%, 17.745972%, 18.891907%)" offset="0.21875"/><stop stop-opacity="1" stop-color="rgb(16.403198%, 17.626953%, 18.902588%)" offset="0.226562"/><stop stop-opacity="1" stop-color="rgb(16.162109%, 17.50946%, 18.913269%)" offset="0.234375"/><stop stop-opacity="1" stop-color="rgb(15.919495%, 17.390442%, 18.92395%)" offset="0.242187"/><stop stop-opacity="1" stop-color="rgb(15.67688%, 17.271423%, 18.934631%)" offset="0.25"/><stop stop-opacity="1" stop-color="rgb(15.435791%, 17.153931%, 18.945312%)" offset="0.257812"/><stop stop-opacity="1" stop-color="rgb(15.193176%, 17.034912%, 18.955994%)" offset="0.265625"/><stop stop-opacity="1" stop-color="rgb(14.950562%, 16.917419%, 18.965149%)" offset="0.273437"/><stop stop-opacity="1" stop-color="rgb(14.709473%, 16.798401%, 18.97583%)" offset="0.28125"/><stop stop-opacity="1" stop-color="rgb(14.466858%, 16.680908%, 18.986511%)" offset="0.289062"/><stop stop-opacity="1" stop-color="rgb(14.224243%, 16.56189%, 18.997192%)" offset="0.296875"/><stop stop-opacity="1" stop-color="rgb(13.983154%, 16.442871%, 19.007874%)" offset="0.304688"/><stop stop-opacity="1" stop-color="rgb(13.74054%, 16.325378%, 19.018555%)" offset="0.3125"/><stop stop-opacity="1" stop-color="rgb(13.499451%, 16.20636%, 19.029236%)" offset="0.320312"/><stop stop-opacity="1" stop-color="rgb(13.256836%, 16.088867%, 19.039917%)" offset="0.328125"/><stop stop-opacity="1" stop-color="rgb(13.014221%, 15.969849%, 19.050598%)" offset="0.335938"/><stop stop-opacity="1" stop-color="rgb(12.773132%, 15.85083%, 19.061279%)" offset="0.34375"/><stop stop-opacity="1" stop-color="rgb(12.530518%, 15.733337%, 19.070435%)" offset="0.351562"/><stop stop-opacity="1" stop-color="rgb(12.287903%, 15.614319%, 19.081116%)" offset="0.359375"/><stop stop-opacity="1" stop-color="rgb(12.046814%, 15.496826%, 19.091797%)" offset="0.367188"/><stop stop-opacity="1" stop-color="rgb(11.804199%, 15.377808%, 19.102478%)" offset="0.375"/><stop stop-opacity="1" stop-color="rgb(11.561584%, 15.258789%, 19.113159%)" offset="0.382812"/><stop stop-opacity="1" stop-color="rgb(11.320496%, 15.141296%, 19.12384%)" offset="0.390625"/><stop stop-opacity="1" stop-color="rgb(11.077881%, 15.022278%, 19.134521%)" offset="0.398438"/><stop stop-opacity="1" stop-color="rgb(10.836792%, 14.904785%, 19.145203%)" offset="0.40625"/><stop stop-opacity="1" stop-color="rgb(10.594177%, 14.785767%, 19.155884%)" offset="0.414062"/><stop stop-opacity="1" stop-color="rgb(10.351562%, 14.666748%, 19.166565%)" offset="0.421875"/><stop stop-opacity="1" stop-color="rgb(10.110474%, 14.549255%, 19.17572%)" offset="0.429688"/><stop stop-opacity="1" stop-color="rgb(9.867859%, 14.430237%, 19.186401%)" offset="0.4375"/><stop stop-opacity="1" stop-color="rgb(9.625244%, 14.312744%, 19.197083%)" offset="0.445312"/><stop stop-opacity="1" stop-color="rgb(9.384155%, 14.193726%, 19.207764%)" offset="0.453125"/><stop stop-opacity="1" stop-color="rgb(9.141541%, 14.074707%, 19.218445%)" offset="0.460937"/><stop stop-opacity="1" stop-color="rgb(8.898926%, 13.957214%, 19.229126%)" offset="0.46875"/><stop stop-opacity="1" stop-color="rgb(8.657837%, 13.838196%, 19.239807%)" offset="0.476562"/><stop stop-opacity="1" stop-color="rgb(8.415222%, 13.720703%, 19.250488%)" offset="0.484375"/><stop stop-opacity="1" stop-color="rgb(8.172607%, 13.601685%, 19.261169%)" offset="0.492187"/><stop stop-opacity="1" stop-color="rgb(7.931519%, 13.482666%, 19.270325%)" offset="0.5"/><stop stop-opacity="1" stop-color="rgb(7.688904%, 13.365173%, 19.281006%)" offset="0.507812"/><stop stop-opacity="1" stop-color="rgb(7.447815%, 13.246155%, 19.291687%)" offset="0.515625"/><stop stop-opacity="1" stop-color="rgb(7.2052%, 13.128662%, 19.302368%)" offset="0.523437"/><stop stop-opacity="1" stop-color="rgb(6.962585%, 13.009644%, 19.313049%)" offset="0.53125"/><stop stop-opacity="1" stop-color="rgb(6.721497%, 12.890625%, 19.32373%)" offset="0.539062"/><stop stop-opacity="1" stop-color="rgb(6.478882%, 12.773132%, 19.334412%)" offset="0.546875"/><stop stop-opacity="1" stop-color="rgb(6.236267%, 12.654114%, 19.345093%)" offset="0.554687"/><stop stop-opacity="1" stop-color="rgb(5.995178%, 12.536621%, 19.355774%)" offset="0.5625"/><stop stop-opacity="1" stop-color="rgb(5.752563%, 12.417603%, 19.366455%)" offset="0.570312"/><stop stop-opacity="1" stop-color="rgb(5.509949%, 12.298584%, 19.37561%)" offset="0.578125"/><stop stop-opacity="1" stop-color="rgb(5.26886%, 12.181091%, 19.386292%)" offset="0.585937"/><stop stop-opacity="1" stop-color="rgb(5.026245%, 12.062073%, 19.396973%)" offset="0.59375"/><stop stop-opacity="1" stop-color="rgb(4.78363%, 11.94458%, 19.407654%)" offset="0.601562"/><stop stop-opacity="1" stop-color="rgb(4.542542%, 11.825562%, 19.418335%)" offset="0.609375"/><stop stop-opacity="1" stop-color="rgb(4.299927%, 11.706543%, 19.429016%)" offset="0.617187"/><stop stop-opacity="1" stop-color="rgb(4.058838%, 11.58905%, 19.439697%)" offset="0.625"/><stop stop-opacity="1" stop-color="rgb(3.816223%, 11.470032%, 19.450378%)" offset="0.632812"/><stop stop-opacity="1" stop-color="rgb(3.573608%, 11.352539%, 19.46106%)" offset="0.640625"/><stop stop-opacity="1" stop-color="rgb(3.33252%, 11.233521%, 19.471741%)" offset="0.648437"/><stop stop-opacity="1" stop-color="rgb(3.089905%, 11.114502%, 19.480896%)" offset="0.65625"/><stop stop-opacity="1" stop-color="rgb(2.84729%, 10.997009%, 19.491577%)" offset="0.664062"/><stop stop-opacity="1" stop-color="rgb(2.606201%, 10.877991%, 19.502258%)" offset="0.671875"/><stop stop-opacity="1" stop-color="rgb(2.363586%, 10.760498%, 19.512939%)" offset="0.679687"/><stop stop-opacity="1" stop-color="rgb(2.120972%, 10.641479%, 19.523621%)" offset="0.6875"/><stop stop-opacity="1" stop-color="rgb(1.879883%, 10.522461%, 19.534302%)" offset="0.695312"/><stop stop-opacity="1" stop-color="rgb(1.637268%, 10.404968%, 19.544983%)" offset="0.703125"/><stop stop-opacity="1" stop-color="rgb(1.394653%, 10.28595%, 19.555664%)" offset="0.710937"/><stop stop-opacity="1" stop-color="rgb(1.153564%, 10.168457%, 19.566345%)" offset="0.71875"/><stop stop-opacity="1" stop-color="rgb(0.91095%, 10.049438%, 19.577026%)" offset="0.726562"/><stop stop-opacity="1" stop-color="rgb(0.669861%, 9.931946%, 19.586182%)" offset="0.734375"/><stop stop-opacity="1" stop-color="rgb(0.474548%, 9.835815%, 19.595337%)" offset="0.75"/><stop stop-opacity="1" stop-color="rgb(0.39978%, 9.799194%, 19.599915%)" offset="0.968432"/><stop stop-opacity="1" stop-color="rgb(0.39978%, 9.799194%, 19.599915%)" offset="1"/></linearGradient></defs><path fill="#07a5c3" d="M 69.175781 202.820312 L 69.074219 202.910156 L 69.417969 204.023438 Z M 328.539062 152.035156 C 328.511719 153.230469 328.203125 153.273438 327.851562 151.785156 C 327.355469 149.695312 326.816406 147.558594 326.371094 145.109375 C 325.273438 140.488281 323.816406 135.753906 322.574219 131.007812 C 318.234375 117.996094 312.003906 105.675781 304.210938 94.34375 L 298.292969 86.4375 L 291.609375 79.15625 C 289.851562 77.074219 287.722656 75.351562 285.722656 73.640625 C 283.59375 71.820312 281.65625 70.21875 280.105469 69.046875 C 278.480469 67.957031 277.1875 67.375 276.582031 67.304688 C 275.710938 67.234375 273.511719 65.910156 270.234375 63.585938 C 260.46875 57.503906 250.320312 52.015625 238.917969 48.300781 L 234.441406 46.714844 L 229.824219 45.628906 C 228.484375 45.316406 227.109375 45.238281 227.761719 45.519531 C 228.300781 45.753906 229.023438 46.042969 229.878906 46.296875 C 231.285156 46.699219 232.851562 47.144531 234.355469 47.574219 C 245.488281 51.414062 256.132812 56.265625 265.683594 62.84375 C 270.058594 65.738281 274.148438 69.113281 278.277344 72.402344 C 281.367188 75.351562 284.546875 78.066406 287.046875 80.949219 C 288.808594 83.171875 291.007812 85.570312 293.136719 87.9375 C 296.230469 91.511719 298.789062 95.507812 301.660156 99.246094 C 303.992188 103.34375 306.613281 107.277344 308.71875 111.484375 C 308.855469 111.785156 308.988281 112.226562 308.964844 112.289062 C 308.945312 112.355469 308.722656 112.121094 308.613281 111.898438 C 306.761719 108.1875 304.222656 104.824219 302.183594 101.230469 C 297.777344 94.609375 292.867188 88.519531 287.363281 82.96875 C 286.316406 81.816406 285.238281 80.636719 284.042969 79.625 C 274.46875 69.878906 262.953125 62.183594 250.777344 56.109375 C 247.945312 54.746094 245.148438 53.179688 242.265625 52.195312 C 231.898438 47.480469 220.429688 45.152344 208.886719 43.539062 C 196.75 42.71875 184.445312 42.667969 172.488281 45.078125 C 152.621094 48.441406 133.972656 57.355469 117.988281 69.429688 C 107.121094 77.785156 97.507812 87.824219 89.582031 99.066406 C 81.554688 110.808594 75.535156 124.007812 71.773438 137.769531 C 71.125 140.332031 70.347656 142.859375 69.757812 145.429688 L 68.464844 153.226562 C 66.441406 167.921875 66.828125 183.011719 69.753906 197.601562 C 70.425781 200.164062 71.109375 202.753906 71.777344 205.300781 C 75.273438 216.972656 79.886719 228.316406 86.4375 238.675781 C 88.175781 241.925781 90.390625 244.914062 92.675781 247.875 L 96.027344 252.371094 L 99.78125 256.53125 C 102.292969 259.28125 104.695312 262.136719 107.558594 264.53125 L 109.339844 266.320312 C 108.726562 265.847656 108.164062 265.414062 107.492188 264.894531 C 106.398438 264 105.242188 263.046875 104.109375 262.121094 L 104.398438 262.355469 C 101.710938 259.695312 99.035156 256.835938 96.300781 253.972656 C 93.726562 250.972656 91.40625 247.695312 88.929688 244.589844 C 88.027344 243.523438 87.292969 242.507812 86.582031 241.507812 C 86.453125 241.335938 86.425781 241.46875 86.507812 241.683594 C 86.597656 241.921875 86.84375 242.417969 87.074219 242.804688 C 89.46875 246.367188 92.152344 249.746094 94.640625 253.242188 C 97.847656 256.910156 101.023438 260.511719 104.5 263.859375 C 113.066406 271.859375 122.65625 278.683594 132.902344 284.332031 C 139.113281 287.339844 145.269531 290.46875 151.601562 292.171875 C 154.277344 292.992188 157.46875 294.320312 160.59375 294.941406 L 168.351562 296.898438 C 170.941406 297.550781 173.625 297.730469 176.25 298.183594 C 181.503906 299.199219 186.851562 299.328125 192.183594 299.589844 C 204.941406 299.753906 217.882812 298.777344 230.148438 295.1875 C 234.082031 294.414062 237.757812 292.894531 241.527344 291.605469 C 245.347656 290.433594 248.933594 288.648438 252.546875 286.828125 C 254.40625 285.847656 256.476562 285.050781 258.273438 283.980469 C 268.503906 278.410156 278.046875 271.300781 286.585938 263.242188 C 296.5625 253.496094 304.9375 242.453125 311.582031 230.453125 C 314.128906 225.511719 316.726562 220.765625 318.546875 215.730469 C 320.792969 210.851562 322.246094 205.765625 323.757812 200.632812 C 325.304688 196.226562 325.71875 192.296875 326.738281 189.722656 C 327.644531 187.027344 328.242188 186.257812 328.234375 189.582031 C 328.234375 190.847656 328.222656 192.214844 328.320312 192.992188 C 328.496094 194.558594 328.546875 196.335938 328.203125 198.566406 C 327.734375 200.773438 326.992188 203.457031 325.953125 206.90625 C 325.15625 209.953125 324.007812 212.910156 322.757812 215.882812 C 321.484375 218.839844 320.558594 221.988281 319.015625 224.957031 C 318.019531 226.910156 317.035156 228.832031 316.050781 230.746094 C 314.226562 234.28125 313.371094 235.277344 314.085938 233.027344 C 314.496094 231.773438 314.980469 230.296875 315.375 229.09375 C 315.667969 228.136719 314.957031 228.730469 314.1875 230.113281 C 312.890625 232.644531 311.339844 235.03125 309.621094 237.570312 C 303.695312 247.910156 295.707031 256.980469 287.265625 265.332031 C 286.066406 266.414062 284.8125 267.546875 283.632812 268.613281 C 272.804688 278.65625 260.222656 286.328125 246.789062 291.992188 C 229.734375 298.949219 211.261719 302.257812 192.777344 301.875 L 183.015625 301.390625 C 167.339844 299.769531 152.015625 295.34375 137.921875 288.386719 C 132.667969 286.148438 127.984375 282.8125 123.054688 279.960938 C 120.671875 278.398438 118.460938 276.589844 116.152344 274.933594 C 113.84375 273.277344 111.554688 271.605469 109.515625 269.644531 C 97.566406 259.53125 87.507812 247.035156 79.773438 233.460938 C 73.269531 221.664062 68.671875 208.929688 65.480469 196.433594 C 64.683594 191.449219 63.199219 186.109375 62.988281 180.785156 C 62.824219 178.667969 62.648438 176.347656 62.5 174.40625 C 61.8125 165.773438 62.351562 156.328125 63.839844 147.164062 C 64.167969 143.328125 65.359375 139.675781 66.164062 135.933594 C 66.910156 132.164062 68.09375 128.523438 69.460938 124.90625 C 72.835938 114.367188 78.382812 104.558594 84.425781 95.347656 C 91.617188 85.644531 99.640625 76.664062 108.96875 69.09375 C 113.171875 65.636719 117.707031 62.558594 122.195312 59.441406 C 133.410156 52.085938 145.292969 47.402344 157.574219 43.757812 C 160.699219 43.066406 163.769531 42.382812 166.757812 41.71875 C 180.527344 39.355469 195.160156 38.628906 209.78125 40.164062 C 211.914062 40.492188 214.128906 40.828125 216.210938 41.148438 L 221.820312 41.902344 C 223.667969 42.28125 225.492188 42.789062 227.332031 43.230469 C 230.996094 44.195312 234.757812 44.890625 238.289062 46.378906 C 240.847656 47.316406 243.320312 47.914062 243.460938 47.675781 C 243.613281 47.425781 241.839844 46.484375 239.527344 45.535156 C 235.644531 43.726562 231.339844 42.832031 227.078125 41.71875 C 225.007812 41.257812 222.980469 40.425781 220.894531 40.164062 C 219.027344 39.832031 218.097656 39.28125 219.589844 39.378906 C 221.285156 39.46875 223.140625 39.625 225 40.070312 C 225.910156 40.25 227.148438 40.546875 228.152344 40.824219 C 230.722656 41.515625 233.265625 42.199219 235.800781 42.878906 L 243.179688 45.535156 C 248.1875 47.050781 252.765625 49.53125 257.539062 51.640625 C 261.972656 53.691406 266.140625 56.667969 270.445312 59.164062 L 281.050781 67.175781 C 284.738281 70.648438 288.445312 73.789062 291.570312 77.34375 C 293.585938 79.703125 295.660156 82.132812 297.769531 84.601562 C 299.890625 87.046875 301.644531 89.859375 303.644531 92.484375 C 306.054688 95.519531 307.980469 98.914062 310.019531 102.011719 C 313.273438 106.492188 315.328125 111.300781 317.402344 116.175781 C 319.238281 120.101562 320.300781 123.9375 322.113281 127.777344 C 323.492188 130.597656 324.34375 133.722656 325.3125 136.863281 C 326.195312 140.023438 327.464844 143.152344 327.945312 146.402344 C 328.28125 148.074219 328.5625 150.777344 328.539062 152.035156 " fill-opacity="1" fill-rule="nonzero"/><path fill="#07a5c3" d="M 264.28125 38.804688 C 269.71875 41.65625 274.25 45.03125 278.132812 47.753906 C 281.449219 50.621094 285.722656 53.871094 290.238281 57.308594 C 293.132812 59.84375 295.492188 62.070312 297.515625 64.265625 C 299.382812 66.144531 301.132812 68.425781 303.128906 70.886719 C 306.5625 75.0625 307.972656 77.195312 308.195312 78.316406 C 308.25 78.644531 308.8125 79.660156 309.425781 80.671875 C 309.722656 81.164062 310.695312 82.414062 311.359375 83.28125 C 311.640625 83.648438 312.074219 84.125 312.183594 84.195312 C 313.273438 85.027344 315.601562 86.984375 318.644531 92.222656 C 321.449219 96.925781 324.367188 101.363281 326.265625 106.1875 C 327.769531 109.863281 329.664062 113.308594 330.746094 117.152344 C 331.824219 120.375 332.90625 123.625 334.003906 126.925781 C 334.53125 128.539062 334.902344 130.398438 335.390625 132.0625 C 335.644531 133 336.046875 134.203125 336.214844 134.511719 C 336.378906 134.820312 336.46875 134.484375 336.34375 133.832031 C 335.839844 131.4375 335.496094 128.820312 334.675781 126.195312 C 332.824219 120.957031 331.464844 115.253906 329.050781 110.210938 C 326.757812 104.792969 324.433594 99.398438 321.398438 94.359375 C 318.726562 89.097656 315.324219 84.296875 311.917969 79.425781 C 310.105469 76.558594 307.601562 73.933594 305.332031 71.242188 C 303.589844 69.265625 301.9375 67.199219 300.109375 65.292969 L 294.378906 59.792969 C 291.867188 57.273438 289.210938 54.914062 286.339844 52.796875 C 283.507812 50.644531 280.804688 48.285156 277.839844 46.304688 L 277.699219 46.277344 C 272.53125 43.136719 267.609375 39.53125 262.046875 37.027344 C 260.445312 36.25 258.792969 35.445312 257.164062 34.65625 C 256.742188 34.453125 255.921875 34.128906 255.941406 34.164062 C 256.003906 34.308594 256.03125 34.503906 256.601562 34.808594 C 259.066406 36.09375 261.648438 37.433594 264.28125 38.804688 " fill-opacity="1" fill-rule="nonzero"/><g clip-path="url(#b6a57364f8)"><path fill="#07a5c3" d="M 336.164062 197.601562 C 335.152344 202.367188 333.46875 206.996094 332.152344 211.777344 C 331.792969 213.300781 331.046875 215.066406 330.496094 216.710938 C 329.539062 219.375 328.929688 221.839844 329.164062 222.054688 C 329.398438 222.277344 330.402344 220.449219 331.351562 218.03125 C 331.75 216.972656 332.171875 215.851562 332.585938 214.757812 C 332.765625 214.199219 333.011719 213.648438 333.132812 213.078125 C 334.289062 208.753906 334.9375 207.355469 334.78125 209.449219 C 334.597656 211.199219 334.484375 213.496094 333.554688 216.328125 C 332.304688 220.640625 331.398438 224.199219 330.933594 226.8125 C 330.570312 228.859375 330.316406 229.976562 331.421875 228.699219 C 331.835938 228.261719 332.492188 226.722656 333.058594 225.351562 C 333.605469 223.984375 334.28125 221.960938 334.671875 220.640625 C 335.4375 218.078125 335.570312 216.902344 335.460938 216.355469 C 335.292969 215.699219 335.371094 214.953125 335.851562 211.925781 C 337.222656 203.699219 337.335938 200.683594 337.0625 195.75 C 337.039062 194.710938 336.507812 195.832031 336.164062 197.601562 " fill-opacity="1" fill-rule="nonzero"/></g><path fill="#07a5c3" d="M 316.152344 236.285156 C 314.421875 239.515625 313.890625 241.121094 312.816406 243.46875 C 311.875 245.347656 310.773438 247.742188 308.957031 249.753906 C 308.128906 250.777344 307.472656 251.589844 306.792969 252.433594 C 306.488281 252.839844 306.066406 253.40625 305.820312 253.734375 C 305.316406 254.496094 304.574219 255.59375 304.523438 255.804688 C 304.074219 257.5625 307.417969 254.675781 311.25 249.917969 C 312.070312 249.027344 313.054688 246.976562 313.515625 246.109375 C 313.984375 245.121094 313.945312 244.8125 314.074219 244.289062 C 314.300781 243.347656 315.058594 241.707031 316.480469 239.175781 C 317.894531 236.902344 318.855469 234.332031 319.898438 231.988281 C 320.257812 231.144531 320.535156 230.300781 320.585938 229.960938 C 320.796875 228.609375 320.292969 228.753906 318.921875 230.789062 C 318.292969 231.699219 316.867188 234.65625 316.152344 236.285156 " fill-opacity="1" fill-rule="nonzero"/><path fill="#07a5c3" d="M 292.933594 268.816406 C 287.832031 273.769531 285.296875 276.859375 284.195312 278.71875 C 284.105469 278.902344 285.222656 278.183594 285.539062 277.863281 C 288.421875 275.15625 291.265625 272.488281 294.148438 269.78125 C 297.070312 266.597656 297.699219 265.386719 298.035156 264.527344 C 298.027344 264.355469 298.058594 264.152344 298 264.042969 C 297.789062 263.652344 295.394531 266.070312 292.933594 268.816406 " fill-opacity="1" fill-rule="nonzero"/><path fill="#07a5c3" d="M 333.777344 197.21875 C 333.664062 196.871094 333.558594 196.371094 333.355469 196.695312 C 332.707031 197.902344 331.5 200.847656 330.003906 205.050781 C 329.757812 205.757812 329.34375 207.214844 329.167969 208.035156 C 328.910156 209.433594 328.703125 210.578125 328.523438 211.566406 C 328.640625 211.75 328.660156 212.164062 328.816406 211.960938 C 329.785156 210.710938 331.09375 207.667969 332.769531 202.707031 C 333.371094 201.117188 334.015625 197.695312 333.777344 197.21875 " fill-opacity="1" fill-rule="nonzero"/><path fill="#07a5c3" d="M 335.464844 181.714844 C 335.550781 179.640625 335.695312 176.214844 335.835938 172.800781 C 335.894531 171.351562 335.671875 170.300781 335.507812 171.015625 C 334.808594 174.046875 334.320312 179.164062 333.867188 184.675781 C 333.363281 187.761719 333.132812 191.476562 333.585938 190.886719 C 333.957031 190.175781 335.285156 186.964844 335.464844 181.714844 " fill-opacity="1" fill-rule="nonzero"/><path fill="#07a5c3" d="M 310.589844 244.449219 C 310.765625 244.042969 310.519531 244.113281 310.191406 244.550781 C 309.492188 245.433594 308.738281 246.792969 307.59375 248.039062 C 306.121094 250.035156 304.523438 252.195312 302.972656 254.296875 C 302.492188 254.96875 301.980469 255.84375 301.890625 256.117188 C 301.800781 256.386719 302.058594 256.28125 302.460938 255.867188 C 304.847656 253.199219 309.480469 247.703125 310.589844 244.449219 " fill-opacity="1" fill-rule="nonzero"/><path fill="#07a5c3" d="M 94.261719 59.859375 C 96.972656 57.550781 99.535156 55.023438 102.292969 52.921875 C 102.613281 52.652344 102.824219 52.402344 102.769531 52.382812 C 102.710938 52.363281 102.347656 52.550781 101.980469 52.804688 C 98.003906 55.449219 94.765625 59.042969 91.234375 62.210938 C 90.925781 62.507812 90.738281 62.769531 90.496094 63.039062 C 90.863281 62.75 91.191406 62.492188 91.609375 62.160156 C 92.46875 61.417969 93.375 60.628906 94.261719 59.859375 " fill-opacity="1" fill-rule="nonzero"/><path fill="#07a5c3" d="M 322.457031 115.128906 C 322.464844 115.246094 322.6875 115.78125 322.902344 116.367188 C 323.5 117.609375 323.980469 119.164062 324.574219 120.632812 C 324.722656 121.011719 324.957031 121.476562 325.039062 121.566406 C 325.265625 121.820312 325.121094 121.152344 324.648438 119.878906 C 324.066406 118.390625 323.578125 116.863281 322.792969 115.511719 C 322.664062 115.253906 322.449219 115.019531 322.457031 115.128906 " fill-opacity="1" fill-rule="nonzero"/><path fill="#07a5c3" d="M 317.421875 251.488281 C 317.246094 251.996094 317.488281 251.800781 318.117188 250.785156 C 318.453125 250.25 318.789062 249.511719 319.023438 249.003906 C 319.089844 248.855469 318.855469 249.089844 318.660156 249.359375 C 318.09375 250.128906 317.65625 250.890625 317.421875 251.488281 " fill-opacity="1" fill-rule="nonzero"/><path fill="#07a5c3" d="M 329.765625 142.429688 C 329.722656 142.097656 329.726562 141.847656 329.636719 141.421875 C 329.4375 140.488281 329.207031 139.351562 328.964844 138.503906 C 328.636719 137.359375 328.457031 137.171875 328.550781 137.964844 C 328.695312 139.148438 329.132812 141.003906 329.523438 142.089844 C 329.628906 142.382812 329.6875 142.324219 329.765625 142.429688 " fill-opacity="1" fill-rule="nonzero"/><path fill="#07a5c3" d="M 330.242188 184.933594 C 330.1875 184.4375 330.015625 184.992188 329.804688 186.359375 C 329.746094 186.75 329.75 187.144531 329.726562 187.539062 C 329.804688 187.953125 329.960938 187.46875 330.171875 186.09375 C 330.234375 185.699219 330.261719 185.101562 330.242188 184.933594 " fill-opacity="1" fill-rule="nonzero"/><g clip-path="url(#d4e0a17b02)"><path fill="#07a5c3" d="M 213.371094 28.371094 C 213.839844 28.3125 213.265625 28.132812 211.914062 27.914062 C 211.457031 27.839844 210.605469 27.742188 210.492188 27.757812 C 210.050781 27.816406 210.632812 27.988281 211.9375 28.21875 C 212.433594 28.269531 213.246094 28.382812 213.371094 28.371094 " fill-opacity="1" fill-rule="nonzero"/></g><path fill="#07a5c3" d="M 70.4375 86.351562 L 70.109375 86.609375 C 69.640625 87.421875 69.171875 88.242188 68.71875 89.027344 C 68.691406 89.078125 68.917969 88.871094 69.027344 88.78125 L 70.4375 86.351562 " fill-opacity="1" fill-rule="nonzero"/><path fill="#07a5c3" d="M 319.023438 242.507812 C 318.984375 242.480469 318.75 242.726562 318.539062 243.042969 C 317.835938 244.097656 317.488281 244.777344 317.539062 244.949219 C 317.699219 244.777344 317.828125 244.707031 318.03125 244.398438 C 318.742188 243.335938 319.128906 242.59375 319.023438 242.507812 " fill-opacity="1" fill-rule="nonzero"/><path fill="#07a5c3" d="M 325.585938 169.855469 C 325.566406 169.585938 325.484375 169.191406 325.460938 169.238281 C 325.429688 169.28125 325.4375 169.800781 325.429688 170.113281 L 325.570312 170.785156 C 325.574219 170.472656 325.582031 170.125 325.585938 169.855469 " fill-opacity="1" fill-rule="nonzero"/><path fill="#07a5c3" d="M 326.429688 112.632812 C 326.5625 112.902344 326.714844 113.082031 326.859375 113.300781 C 326.726562 112.964844 326.570312 112.589844 326.453125 112.292969 C 326.316406 112.015625 326.164062 111.839844 326.019531 111.621094 C 326.15625 111.960938 326.308594 112.332031 326.429688 112.632812 " fill-opacity="1" fill-rule="nonzero"/><path fill="#07a5c3" d="M 321.296875 150.074219 C 321.335938 150.460938 321.386719 150.910156 321.414062 151.210938 C 321.480469 151.570312 321.609375 152.03125 321.652344 152.046875 C 321.8125 152.117188 321.75 151.460938 321.492188 150.433594 C 321.425781 150.15625 321.363281 150.1875 321.296875 150.074219 " fill-opacity="1" fill-rule="nonzero"/><path fill="#07a5c3" d="M 305.8125 246.871094 L 306.402344 246.269531 L 306.558594 245.839844 Z M 305.8125 246.871094 " fill-opacity="1" fill-rule="nonzero"/><path fill="#07a5c3" d="M 314.789062 90.0625 L 314.046875 89.035156 L 314.234375 89.457031 Z M 314.789062 90.0625 " fill-opacity="1" fill-rule="nonzero"/><path fill="#07a5c3" d="M 129.019531 281.035156 L 128.398438 280.730469 L 129.34375 281.328125 Z M 129.019531 281.035156 " fill-opacity="1" fill-rule="nonzero"/><g clip-path="url(#f079cfdabc)"><g clip-path="url(#c9336f3a14)"><path fill="url(#57eb455bd4)" d="M 16.679688 224.324219 L 178.550781 -56.050781 L 458.925781 105.824219 L 297.050781 386.199219 Z M 16.679688 224.324219 " fill-rule="nonzero"/></g></g><g fill="#f6e7d8" fill-opacity="1"><g transform="translate(117.279884, 180.56886)"><g><path d="M 21.125 -21.203125 L 7.5 -21.203125 L 7.5 -14.453125 L 19.703125 -14.453125 L 19.703125 -10.671875 L 7.5 -10.671875 L 7.5 -3.78125 L 21.5625 -3.78125 L 21.5625 0 L 3.28125 0 L 3.28125 -24.984375 L 21.125 -24.984375 Z M 21.125 -21.203125 "/></g></g></g><g fill="#f6e7d8" fill-opacity="1"><g transform="translate(141.40208, 180.56886)"><g/></g></g><g fill="#f6e7d8" fill-opacity="1"><g transform="translate(151.322215, 180.56886)"><g><path d="M 19.125 0 L 14.5625 -7.5625 C 14.320312 -7.539062 13.941406 -7.53125 13.421875 -7.53125 L 7.5 -7.53125 L 7.5 0 L 3.28125 0 L 3.28125 -24.984375 L 13.421875 -24.984375 C 16.609375 -24.984375 19.082031 -24.238281 20.84375 -22.75 C 22.601562 -21.257812 23.484375 -19.160156 23.484375 -16.453125 C 23.484375 -14.453125 23.035156 -12.757812 22.140625 -11.375 C 21.253906 -10 19.976562 -8.988281 18.3125 -8.34375 L 23.90625 0 Z M 7.5 -11.3125 L 13.421875 -11.3125 C 17.460938 -11.3125 19.484375 -12.988281 19.484375 -16.34375 C 19.484375 -19.582031 17.460938 -21.203125 13.421875 -21.203125 L 7.5 -21.203125 Z M 7.5 -11.3125 "/></g></g></g><g fill="#f6e7d8" fill-opacity="1"><g transform="translate(177.835205, 180.56886)"><g><path d="M 5.03125 -21.46875 C 7.570312 -23.882812 10.710938 -25.09375 14.453125 -25.09375 C 18.191406 -25.09375 21.332031 -23.882812 23.875 -21.46875 C 26.414062 -19.050781 27.6875 -16.054688 27.6875 -12.484375 C 27.6875 -8.921875 26.414062 -5.921875 23.875 -3.484375 C 21.332031 -1.046875 18.191406 0.171875 14.453125 0.171875 C 10.710938 0.171875 7.570312 -1.046875 5.03125 -3.484375 C 2.488281 -5.921875 1.21875 -8.921875 1.21875 -12.484375 C 1.21875 -16.054688 2.488281 -19.050781 5.03125 -21.46875 Z M 14.484375 -21.3125 C 12.015625 -21.3125 9.898438 -20.457031 8.140625 -18.75 C 6.378906 -17.050781 5.5 -14.960938 5.5 -12.484375 C 5.5 -10.015625 6.382812 -7.914062 8.15625 -6.1875 C 9.925781 -4.46875 12.035156 -3.609375 14.484375 -3.609375 C 16.941406 -3.609375 19.035156 -4.46875 20.765625 -6.1875 C 22.503906 -7.914062 23.375 -10.015625 23.375 -12.484375 C 23.375 -14.960938 22.503906 -17.050781 20.765625 -18.75 C 19.035156 -20.457031 16.941406 -21.3125 14.484375 -21.3125 Z M 14.484375 -21.3125 "/></g></g></g><g fill="#f6e7d8" fill-opacity="1"><g transform="translate(207.452673, 180.56886)"><g><path d="M 24.515625 -24.984375 L 24.515625 -10.34375 C 24.515625 -7.082031 23.550781 -4.515625 21.625 -2.640625 C 19.695312 -0.765625 17.039062 0.171875 13.65625 0.171875 C 10.28125 0.171875 7.625 -0.765625 5.6875 -2.640625 C 3.75 -4.515625 2.78125 -7.082031 2.78125 -10.34375 L 2.78125 -24.984375 L 7 -24.984375 L 7 -10.34375 C 7 -8.25 7.597656 -6.601562 8.796875 -5.40625 C 9.992188 -4.207031 11.628906 -3.609375 13.703125 -3.609375 C 15.742188 -3.609375 17.351562 -4.203125 18.53125 -5.390625 C 19.71875 -6.578125 20.3125 -8.226562 20.3125 -10.34375 L 20.3125 -24.984375 Z M 24.515625 -24.984375 "/></g></g></g><g fill="#f6e7d8" fill-opacity="1"><g transform="translate(235.428703, 180.56886)"><g><path d="M 11.484375 -25.15625 C 14.722656 -25.15625 17.640625 -24.300781 20.234375 -22.59375 L 18.484375 -18.875 C 15.941406 -20.425781 13.503906 -21.203125 11.171875 -21.203125 C 9.910156 -21.203125 8.914062 -20.972656 8.1875 -20.515625 C 7.46875 -20.066406 7.109375 -19.425781 7.109375 -18.59375 C 7.109375 -17.757812 7.4375 -17.050781 8.09375 -16.46875 C 8.757812 -15.882812 9.59375 -15.457031 10.59375 -15.1875 C 11.59375 -14.914062 12.675781 -14.570312 13.84375 -14.15625 C 15.007812 -13.738281 16.09375 -13.296875 17.09375 -12.828125 C 18.09375 -12.367188 18.921875 -11.644531 19.578125 -10.65625 C 20.234375 -9.664062 20.5625 -8.46875 20.5625 -7.0625 C 20.5625 -4.875 19.6875 -3.125 17.9375 -1.8125 C 16.1875 -0.507812 13.921875 0.140625 11.140625 0.140625 C 9.234375 0.140625 7.382812 -0.210938 5.59375 -0.921875 C 3.8125 -1.640625 2.253906 -2.601562 0.921875 -3.8125 L 2.75 -7.453125 C 4.007812 -6.285156 5.394531 -5.382812 6.90625 -4.75 C 8.414062 -4.125 9.847656 -3.8125 11.203125 -3.8125 C 12.679688 -3.8125 13.828125 -4.078125 14.640625 -4.609375 C 15.460938 -5.148438 15.875 -5.898438 15.875 -6.859375 C 15.875 -7.710938 15.539062 -8.429688 14.875 -9.015625 C 14.207031 -9.597656 13.375 -10.023438 12.375 -10.296875 C 11.382812 -10.566406 10.304688 -10.898438 9.140625 -11.296875 C 7.972656 -11.691406 6.890625 -12.109375 5.890625 -12.546875 C 4.890625 -12.984375 4.054688 -13.6875 3.390625 -14.65625 C 2.722656 -15.632812 2.390625 -16.816406 2.390625 -18.203125 C 2.390625 -20.316406 3.222656 -22.003906 4.890625 -23.265625 C 6.554688 -24.523438 8.753906 -25.15625 11.484375 -25.15625 Z M 11.484375 -25.15625 "/></g></g></g><g fill="#f6e7d8" fill-opacity="1"><g transform="translate(258.337668, 180.56886)"><g><path d="M 21.125 -21.203125 L 7.5 -21.203125 L 7.5 -14.453125 L 19.703125 -14.453125 L 19.703125 -10.671875 L 7.5 -10.671875 L 7.5 -3.78125 L 21.5625 -3.78125 L 21.5625 0 L 3.28125 0 L 3.28125 -24.984375 L 21.125 -24.984375 Z M 21.125 -21.203125 "/></g></g></g></svg>